<svg xmlns="http://www.w3.org/2000/svg" xmlns:xlink="http://www.w3.org/1999/xlink" version="1.1" x="0px" y="0px" viewBox="0 0 34 42.5" style="enable-background:new 0 0 34 34;" xml:space="preserve"><title>자산 306</title><g><g><path d="M27,17c0,5.5-4.5,10-10,10S7,22.5,7,17C7,11.5,11.5,7,17,7C22.5,6.9,27,11.4,27,17C27,16.9,27,16.9,27,17z M8.5,17    c0,4.7,3.8,8.5,8.5,8.6c4.7,0,8.5-3.8,8.6-8.5c0-4.7-3.8-8.5-8.5-8.6c0,0,0,0-0.1,0C12.3,8.5,8.5,12.3,8.5,17z"/><path d="M19.9,15.2L17,18.1l-2.9-2.9c-0.3-0.3-0.8-0.3-1.1,0l0,0c-0.3,0.3-0.3,0.8,0,1.1l4,4l4-4c0.3-0.3,0.3-0.8,0-1.1l0,0    C20.8,14.9,20.3,14.9,19.9,15.2C20,15.1,19.9,15.2,19.9,15.2z"/></g></g></svg>