<svg xmlns="http://www.w3.org/2000/svg" version="1.1" viewBox="-5.0 -10.0 110.0 135.0">
 <path d="m76.098 56.926c0 0.066407 0.019532 0.12891 0.019532 0.19531-3.0078 3.2656-3.2188 10.262-3.3281 14.102l-0.019531 0.64062c-0.26953 7.7852-2.6328 11.301-8.1602 12.137-0.5625 0.085938-1.1641 0.10547-1.7812 0.085938l-2.1016-3.8789c-0.73437-1.3438-2.1289-2.1797-3.6445-2.1797h-6.0352v-12.859c2.918-1.3516 5.2578-3.6328 6.6875-6.4219 11.801-4.5625 19.406-14.562 19.406-25.598 0-15.523-14.887-28.148-33.188-28.148-18.297 0-33.188 12.629-33.188 28.148 0 11.035 7.6055 21.035 19.406 25.598 1.4297 2.7852 3.7695 5.0703 6.6875 6.4219v12.859h-6.0352c-1.5117 0-2.9102 0.83594-3.6445 2.1836l-4.6875 8.6484c-0.71094 1.2969-0.68359 2.8281 0.066406 4.0977 0.75781 1.2812 2.1016 2.043 3.5898 2.043h35.605c1.4922 0 2.832-0.76562 3.5898-2.043 0.75-1.2695 0.77734-2.8047 0.070312-4.0938l-1.3828-2.5508c0.30469-0.023438 0.62109-0.023438 0.91797-0.070312 8.543-1.293 9.8789-8.3242 10.086-14.305l0.019532-0.65234c0.074218-2.6133 0.23828-8.1328 1.832-11.297 1.1055 2.0742 3.2656 3.5078 5.7773 3.5078 3.6211 0 6.5664-2.9453 6.5664-6.5664 0-3.6211-2.9453-6.5664-6.5664-6.5664-3.6211 0-6.5703 2.9453-6.5703 6.5664zm-36.969 21.906v-19.992c0-2.6602 2.1641-4.8242 4.8242-4.8242s4.8242 2.1641 4.8242 4.8242v19.992c0 2.6602-2.1641 4.8242-4.8242 4.8242s-4.8242-2.1641-4.8242-4.8242zm-26.094-45.684c0-14.27 13.871-25.879 30.918-25.879s30.918 11.609 30.918 25.879c0 9.4883-6.2227 18.164-16.043 22.68 0.29297-1.125 0.48047-2.2812 0.48047-3.4688v-7.6602h1.4102c2.293 0 4.1602-1.8672 4.1602-4.1602v-2.2734c0-2.293-1.8672-4.1602-4.1602-4.1602h-1.4102v-6.5391c0-0.29688-0.015625-0.58594-0.035156-0.95312-0.49609-7.3945-6.6953-13.191-14.109-13.191h-2.418c-7.8008 0-14.145 6.3438-14.145 14.145v6.5391h-1.4102c-2.293 0-4.1602 1.8672-4.1602 4.1602v2.2734c0 2.293 1.8672 4.1602 4.1602 4.1602h1.4102v7.6602c0 1.1875 0.1875 2.3438 0.48047 3.4688-9.8203-4.5117-16.043-13.191-16.043-22.68zm14.156 9.2812c-1.043 0-1.8906-0.84766-1.8906-1.8906v-2.2734c0-1.043 0.84766-1.8906 1.8906-1.8906h33.527c1.043 0 1.8906 0.84766 1.8906 1.8906v2.2734c0 1.043-0.84766 1.8906-1.8906 1.8906zm11.77-14.605h18.074v6.2812h-26.168v-6.5391c0-6.5469 5.3281-11.875 11.875-11.875h2.418c5.8008 0 10.707 4.2227 11.691 9.8633h-17.895c-0.625 0-1.1328 0.50781-1.1328 1.1328s0.50781 1.1328 1.1328 1.1328zm-8.0898 24.535v-7.6602h26.168v7.6602c0 4.2461-2.3516 8.1914-5.9922 10.289v-3.8086c0-3.9102-3.1836-7.0938-7.0938-7.0938s-7.0938 3.1836-7.0938 7.0938v3.8086c-3.6406-2.1016-5.9922-6.043-5.9922-10.289zm32.523 39.441c-0.34375 0.58203-0.95703 0.92969-1.6367 0.92969h-35.605c-0.67969 0-1.293-0.34766-1.6367-0.92969s-0.35547-1.2578-0.027344-1.8555l4.6875-8.6484c0.33594-0.61328 0.96875-0.99609 1.6523-0.99609h6.1914c0.67969 3.2109 3.5273 5.6289 6.9375 5.6289 3.4102 0 6.2578-2.418 6.9375-5.6289h6.1914c0.68359 0 1.3164 0.38281 1.6484 0.99609l4.6914 8.6562c0.32422 0.59375 0.31641 1.2695-0.03125 1.8516zm23.57-34.875c0 2.3711-1.9258 4.3008-4.2969 4.3008-2.3711 0-4.3008-1.9297-4.3008-4.3008 0-2.3711 1.9297-4.3008 4.3008-4.3008 2.3711 0 4.2969 1.9297 4.2969 4.3008z"/>
</svg>