<svg xmlns="http://www.w3.org/2000/svg" viewBox="0 0 24 30" x="0px" y="0px"><title>Artboard 87</title><g><path d="M13.61,21.75H10.39a2.14,2.14,0,0,1-2.14-2.14.63.63,0,0,0-.32-.56.61.61,0,0,0-.64,0,2.12,2.12,0,0,1-1.63.22,2.18,2.18,0,0,1-1.3-1L2.75,15.48a2.14,2.14,0,0,1,.78-2.92A.63.63,0,0,0,3.86,12a.62.62,0,0,0-.32-.55,2.15,2.15,0,0,1-.79-2.93L4.36,5.73a2.18,2.18,0,0,1,1.3-1A2.09,2.09,0,0,1,7.28,5a.65.65,0,0,0,1-.55,2.14,2.14,0,0,1,2.14-2.15h3.22a2.14,2.14,0,0,1,2.14,2.14.63.63,0,0,0,.32.56.61.61,0,0,0,.64,0,2.12,2.12,0,0,1,1.63-.22,2.18,2.18,0,0,1,1.3,1l1.61,2.79h0a2.14,2.14,0,0,1-.78,2.92.63.63,0,0,0-.33.56.62.62,0,0,0,.32.55,2.15,2.15,0,0,1,.79,2.93l-1.61,2.79a2.18,2.18,0,0,1-1.3,1,2.09,2.09,0,0,1-1.62-.22.65.65,0,0,0-1,.55A2.14,2.14,0,0,1,13.61,21.75Zm-6-4.29a2.15,2.15,0,0,1,1.07.29A2.12,2.12,0,0,1,9.75,19.6a.65.65,0,0,0,.64.65h3.22a.64.64,0,0,0,.64-.64,2.13,2.13,0,0,1,1.07-1.86,2.1,2.1,0,0,1,2.14,0,.64.64,0,0,0,.88-.23L20,14.73a.63.63,0,0,0-.23-.87,2.14,2.14,0,0,1,0-3.71A.64.64,0,0,0,20,9.27L18.34,6.48a.65.65,0,0,0-.39-.3.62.62,0,0,0-.48.07A2.15,2.15,0,0,1,14.25,4.4a.65.65,0,0,0-.64-.65H10.39a.64.64,0,0,0-.64.64A2.13,2.13,0,0,1,8.68,6.25a2.1,2.1,0,0,1-2.14,0,.64.64,0,0,0-.88.23L4.05,9.27a.63.63,0,0,0,.23.87,2.14,2.14,0,0,1,0,3.71.64.64,0,0,0-.24.88l1.61,2.79a.65.65,0,0,0,.39.3.62.62,0,0,0,.48-.07A2.21,2.21,0,0,1,7.61,17.46Z"/><path d="M12,15.75A3.75,3.75,0,1,1,15.75,12,3.75,3.75,0,0,1,12,15.75Zm0-6A2.25,2.25,0,1,0,14.25,12,2.25,2.25,0,0,0,12,9.75Z"/></g><text x="0" y="39" fill="#000000" font-size="5px" font-weight="bold" font-family="'Helvetica Neue', Helvetica, Arial-Unicode, Arial, Sans-serif">Created by SuperNdre</text><text x="0" y="44" fill="#000000" font-size="5px" font-weight="bold" font-family="'Helvetica Neue', Helvetica, Arial-Unicode, Arial, Sans-serif">from the Noun Project</text></svg>